<svg width="337" height="40" viewBox="0 0 337 40" fill="none" xmlns="http://www.w3.org/2000/svg">
<path d="M7.57013 13.5736C7.57013 10.8806 5.92268 9.66611 4.95543 9.66611C3.98818 9.66612 2.34073 10.8806 2.34073 13.5736C2.34076 16.2666 3.98819 17.481 4.95543 17.481V19.8217C2.26137 19.8217 0.0694545 17.111 0.00163276 13.7348L0 13.5736C0 10.1229 2.21862 7.32539 4.95543 7.32538C7.69225 7.32538 9.91086 10.1229 9.91086 13.5736L9.90923 13.7348C9.84141 17.111 7.6495 19.8217 4.95543 19.8217V17.481C5.92267 17.481 7.57011 16.2666 7.57013 13.5736Z" fill="#232F61"/>
<path d="M39.4569 13.5738C39.4569 10.8808 37.8094 9.66629 36.8421 9.66629C35.8749 9.66631 34.2274 10.8808 34.2274 13.5738C34.2275 16.2668 35.8749 17.4812 36.8421 17.4812V19.8219C34.1481 19.8219 31.9562 17.1112 31.8884 13.735L31.8867 13.5738C31.8867 10.123 34.1053 7.32558 36.8421 7.32556C39.579 7.32556 41.7976 10.123 41.7976 13.5738L41.7959 13.735C41.7281 17.1112 39.5362 19.8219 36.8421 19.8219V17.4812C37.8094 17.4812 39.4568 16.2668 39.4569 13.5738Z" fill="#232F61"/>
<path d="M25.4111 23.2888C24.8459 22.7203 24.0944 22.4074 23.295 22.4074C22.4955 22.4074 21.744 22.7203 21.1786 23.2888L20.9 23.569L20.6215 23.2888C20.0562 22.7203 19.3045 22.4074 18.5052 22.4074C17.7058 22.4074 16.9541 22.7203 16.3889 23.2888C15.2219 24.4625 15.2219 26.3723 16.3889 27.5456L20.5704 31.7512C20.6388 31.8202 20.7239 31.8625 20.8129 31.8787C20.8427 31.8847 20.8727 31.8874 20.9027 31.8874C21.021 31.8874 21.1395 31.842 21.2296 31.7512L25.4111 27.5456C26.5782 26.3723 26.5782 24.4625 25.4111 23.2888ZM24.7574 26.8882L20.9 30.7677L17.0426 26.8882C16.2362 26.0772 16.2362 24.7577 17.0426 23.9463C17.4333 23.5535 17.9528 23.3374 18.5052 23.3374C19.0576 23.3374 19.577 23.5535 19.9675 23.9463L20.5731 24.5556C20.7468 24.73 21.0535 24.73 21.2271 24.5556L21.8325 23.9463C22.2231 23.5535 22.7425 23.3374 23.2951 23.3374C23.8475 23.3374 24.3668 23.5535 24.7574 23.9463C25.5639 24.7577 25.5639 26.0772 24.7574 26.8882Z" fill="#232F61"/>
<path d="M23.2939 21.7386C24.2718 21.7387 25.1937 22.1228 25.8841 22.8172C27.3105 24.2518 27.3106 26.5829 25.8841 28.0171L21.7031 32.222L21.7033 32.2221C21.4825 32.4447 21.1908 32.5562 20.9016 32.5562C20.8337 32.5562 20.7633 32.55 20.6913 32.5364V32.5366C20.69 32.5363 20.6887 32.536 20.6874 32.5358C20.6854 32.5354 20.6835 32.5352 20.6815 32.5348V32.5345C20.4685 32.4935 20.2617 32.3905 20.095 32.2226V32.2228L15.9135 28.0173C14.4871 26.583 14.4873 24.2518 15.9135 22.8172C16.604 22.1228 17.5263 21.7386 18.5041 21.7386C19.3922 21.7387 20.2344 22.0556 20.8988 22.6341C21.5633 22.0556 22.4056 21.7386 23.2939 21.7386ZM23.2939 22.4074C22.4944 22.4074 21.7428 22.7203 21.1774 23.2888L20.8988 23.569L20.6203 23.2888C20.0727 22.7381 19.3502 22.4273 18.5788 22.4084L18.5041 22.4074C17.7047 22.4074 16.9529 22.7203 16.3877 23.2888L16.334 23.3443C15.2211 24.522 15.2389 26.3907 16.3877 27.5457L20.5693 31.7512C20.6377 31.8202 20.7227 31.8625 20.8116 31.8787C20.8265 31.8817 20.8416 31.8839 20.8565 31.8853L20.9016 31.8874C21.0199 31.8874 21.1384 31.8421 21.2285 31.7512L25.41 27.5457C26.5588 26.3908 26.5768 24.522 25.4639 23.3443L25.41 23.2888C24.8624 22.7381 24.1401 22.4273 23.3687 22.4084L23.2939 22.4074ZM23.3455 23.3381C23.8786 23.3511 24.3779 23.5657 24.7562 23.9463C25.5628 24.7577 25.5628 26.0772 24.7562 26.8882L20.8988 30.7677L17.0414 26.8882C16.235 26.0772 16.235 24.7577 17.0414 23.9463C17.4321 23.5535 17.9517 23.3374 18.5041 23.3374L18.5557 23.3381C19.0887 23.3511 19.5881 23.5657 19.9664 23.9463L20.5719 24.5557C20.7456 24.73 21.0523 24.73 21.2259 24.5557L21.8313 23.9463C22.2218 23.5535 22.7414 23.3374 23.2939 23.3374L23.3455 23.3381ZM23.2939 24.0062C22.9197 24.0062 22.5708 24.1511 22.3056 24.4178L21.7003 25.027L21.6999 25.0275C21.2648 25.4645 20.5331 25.4644 20.0981 25.0275L20.0976 25.0272L19.492 24.4178C19.2269 24.1511 18.8781 24.0062 18.5041 24.0062C18.1301 24.0062 17.7811 24.1511 17.5157 24.4178L17.5156 24.4177C16.9684 24.9683 16.9688 25.8667 17.5157 26.4167L20.8988 29.819L24.2821 26.4167C24.812 25.8838 24.8286 25.0242 24.3315 24.4704L24.2819 24.4178C24.0167 24.1511 23.668 24.0062 23.2939 24.0062Z" fill="#232F61"/>
<path d="M20.5488 14.3432C23.5433 14.3018 26.2415 15.6026 28.4926 17.5245C30.742 19.4449 32.6078 22.0347 33.9813 24.7307C35.3547 27.4264 36.269 30.2929 36.5668 32.8072C36.8545 35.2352 36.6044 37.6809 35.2013 39.1578C34.2729 40.1351 32.9573 40.0872 31.9211 39.8728C30.8415 39.6493 29.5937 39.1468 28.3568 38.6317C25.7612 37.5508 23.0333 36.35 20.5367 36.2898C18.0923 36.231 15.7636 37.3261 13.4597 38.394C12.3605 38.9034 11.2202 39.4261 10.1615 39.6906C9.08831 39.9586 7.89162 40.0155 6.80762 39.3483C5.89848 38.7888 5.3828 37.8618 5.11853 36.8729C4.85416 35.8836 4.80965 34.7279 4.91868 33.5151C5.13718 31.0848 5.99337 28.1954 7.31426 25.4302C8.63648 22.6623 10.4603 19.9433 12.6714 17.8906C14.88 15.8401 17.5557 14.3847 20.5488 14.3432ZM20.5811 16.6838C18.3564 16.7146 16.2103 17.7992 14.2639 19.6061C12.3201 21.4108 10.6554 23.8664 9.4264 26.4392C8.19607 29.0148 7.43819 31.6326 7.2501 33.7248C7.15584 34.7733 7.20999 35.6328 7.3799 36.2686C7.5499 36.9048 7.80415 37.2131 8.03447 37.3549C8.35068 37.5495 8.80528 37.6168 9.59425 37.4197C10.3977 37.219 11.3306 36.8009 12.4754 36.2703C14.6595 35.258 17.5024 33.8754 20.593 33.9498C23.6302 34.0229 26.8266 35.4589 29.2566 36.4709C30.5325 37.0023 31.5729 37.4102 32.3956 37.5805C33.2618 37.7598 33.463 37.589 33.5042 37.5456C34.148 36.8679 34.5126 35.3633 34.2424 33.0824C33.9824 30.8878 33.1662 28.2868 31.8958 25.7933C30.6256 23.3002 28.9343 20.9793 26.9727 19.3046C25.0129 17.6313 22.846 16.6525 20.5811 16.6838Z" fill="#232F61"/>
<path d="M17.4803 6.24843C17.4803 3.5554 15.8328 2.34091 14.8656 2.34091C13.8983 2.34093 12.2509 3.55542 12.2509 6.24843C12.2509 8.9414 13.8983 10.1558 14.8656 10.1558V12.4965C12.1715 12.4965 9.97961 9.78584 9.91179 6.40959L9.91016 6.24843C9.91016 2.79767 12.1288 0.00019897 14.8656 0.000183105C17.6024 0.000183105 19.821 2.79766 19.821 6.24843L19.8194 6.40959C19.7516 9.78585 17.5597 12.4965 14.8656 12.4965V10.1558C15.8328 10.1558 17.4803 8.94142 17.4803 6.24843Z" fill="#232F61"/>
<path d="M29.5467 6.24825C29.5467 3.55521 27.8992 2.34073 26.932 2.34073C25.9647 2.34075 24.3173 3.55524 24.3173 6.24825C24.3173 8.94122 25.9648 10.1556 26.932 10.1556V12.4963C24.2379 12.4963 22.046 9.78566 21.9782 6.4094L21.9766 6.24825C21.9766 2.79749 24.1952 1.58643e-05 26.932 0C29.6688 0 31.8874 2.79748 31.8874 6.24825L31.8858 6.4094C31.818 9.78567 29.6261 12.4963 26.932 12.4963V10.1556C27.8992 10.1556 29.5467 8.94124 29.5467 6.24825Z" fill="#232F61"/>
<path d="M329.677 31.45C327.365 31.45 325.461 30.974 323.965 30.022C323.659 29.818 323.438 29.58 323.302 29.308C323.166 29.002 323.098 28.713 323.098 28.441C323.098 27.863 323.285 27.336 323.659 26.86C324.067 26.384 324.56 26.146 325.138 26.146C325.41 26.146 325.682 26.214 325.954 26.35C326.566 26.622 327.263 26.86 328.045 27.064C328.827 27.234 329.541 27.319 330.187 27.319C331.445 27.319 332.074 27.03 332.074 26.452C332.074 26.112 331.921 25.823 331.615 25.585C331.309 25.313 330.595 25.126 329.473 25.024C329.031 24.99 328.453 24.922 327.739 24.82C327.059 24.718 326.379 24.531 325.699 24.259C325.019 23.953 324.441 23.511 323.965 22.933C323.523 22.355 323.302 21.573 323.302 20.587C323.302 19.057 323.88 17.85 325.036 16.966C326.192 16.082 327.739 15.64 329.677 15.64C330.799 15.64 331.853 15.759 332.839 15.997C333.859 16.235 334.624 16.592 335.134 17.068C335.61 17.51 335.848 18.02 335.848 18.598C335.848 19.108 335.661 19.567 335.287 19.975C334.913 20.383 334.437 20.587 333.859 20.587C333.553 20.587 333.264 20.519 332.992 20.383C332.584 20.111 332.057 19.907 331.411 19.771C330.799 19.635 330.17 19.567 329.524 19.567C328.232 19.567 327.586 19.839 327.586 20.383C327.586 20.621 327.705 20.842 327.943 21.046C328.215 21.216 328.81 21.369 329.728 21.505C330.306 21.573 330.969 21.675 331.717 21.811C332.465 21.913 333.179 22.117 333.859 22.423C334.573 22.695 335.168 23.154 335.644 23.8C336.12 24.446 336.358 25.33 336.358 26.452C336.358 27.982 335.746 29.206 334.522 30.124C333.298 31.008 331.683 31.45 329.677 31.45Z" fill="#232F61"/>
<path d="M313.982 31.45C311.67 31.45 309.715 30.77 308.117 29.41C306.553 28.016 305.771 26.112 305.771 23.698C305.771 21.182 306.536 19.21 308.066 17.782C309.63 16.354 311.585 15.64 313.931 15.64C315.597 15.64 316.975 15.946 318.062 16.558C319.151 17.17 319.966 17.952 320.51 18.904C321.054 19.856 321.327 20.859 321.327 21.913C321.327 23.681 320.544 24.565 318.98 24.565H310.514C310.242 24.565 310.107 24.735 310.107 25.075C310.107 25.857 310.531 26.486 311.382 26.962C312.266 27.404 313.252 27.625 314.34 27.625C315.02 27.625 315.699 27.54 316.379 27.37C317.059 27.166 317.654 26.877 318.164 26.503C318.504 26.265 318.862 26.146 319.236 26.146C319.746 26.146 320.17 26.333 320.51 26.707C320.884 27.081 321.072 27.523 321.072 28.033C321.072 28.645 320.749 29.223 320.103 29.767C319.491 30.277 318.59 30.685 317.4 30.991C316.244 31.297 315.104 31.45 313.982 31.45ZM316.634 21.607C316.702 21.607 316.787 21.59 316.889 21.556C317.025 21.522 317.094 21.403 317.094 21.199C317.094 20.689 316.77 20.23 316.124 19.822C315.512 19.38 314.714 19.159 313.728 19.159C312.674 19.159 311.806 19.397 311.126 19.873C310.48 20.315 310.158 20.774 310.158 21.25C310.158 21.488 310.293 21.607 310.565 21.607H316.634Z" fill="#232F61"/>
<path d="M297.214 38.335C296.806 38.335 296.449 38.301 296.143 38.233C295.837 38.165 295.548 38.097 295.276 38.029C294.766 37.859 294.392 37.587 294.154 37.213C293.916 36.839 293.797 36.448 293.797 36.04C293.797 35.428 294.018 34.884 294.46 34.408C294.902 33.932 295.497 33.779 296.245 33.949C296.517 34.017 296.755 34.051 296.959 34.051C297.809 34.051 298.234 33.439 298.234 32.215V17.629C298.234 17.085 298.438 16.626 298.846 16.252C299.288 15.844 299.849 15.64 300.529 15.64C301.209 15.64 301.736 15.844 302.11 16.252C302.518 16.626 302.722 17.102 302.722 17.68V32.317C302.722 34.085 302.212 35.53 301.192 36.652C300.206 37.774 298.88 38.335 297.214 38.335ZM300.478 13.345C299.764 13.345 299.152 13.124 298.642 12.682C298.132 12.206 297.877 11.611 297.877 10.897C297.877 10.251 298.132 9.69 298.642 9.214C299.152 8.738 299.764 8.5 300.478 8.5C301.158 8.5 301.736 8.738 302.212 9.214C302.722 9.69 302.977 10.251 302.977 10.897C302.977 11.611 302.722 12.206 302.212 12.682C301.736 13.124 301.158 13.345 300.478 13.345Z" fill="#232F61"/>
<path d="M291.252 31.45C289.79 31.45 288.583 31.025 287.631 30.175C286.679 29.325 286.203 28.016 286.203 26.248V20.74C286.203 20.4 286.033 20.23 285.693 20.23H284.928C284.316 20.23 283.857 20.043 283.551 19.669C283.245 19.295 283.092 18.819 283.092 18.241C283.092 17.629 283.245 17.136 283.551 16.762C283.857 16.354 284.316 16.15 284.928 16.15H285.693C286.033 16.15 286.203 15.98 286.203 15.64V11.866C286.203 11.288 286.407 10.795 286.815 10.387C287.223 9.97902 287.75 9.77502 288.396 9.77502C289.042 9.77502 289.569 9.97902 289.977 10.387C290.419 10.761 290.64 11.254 290.64 11.866V15.64C290.64 15.98 290.81 16.15 291.15 16.15H293.037C293.615 16.15 294.091 16.354 294.465 16.762C294.873 17.17 295.077 17.663 295.077 18.241C295.077 18.819 294.873 19.295 294.465 19.669C294.091 20.043 293.598 20.23 292.986 20.23H291.15C290.81 20.23 290.64 20.4 290.64 20.74V25.534C290.64 26.146 290.742 26.571 290.946 26.809C291.184 27.047 291.473 27.166 291.813 27.166C291.949 27.166 292.221 27.132 292.629 27.064C293.037 26.962 293.292 26.911 293.394 26.911C293.938 26.911 294.397 27.115 294.771 27.523C295.145 27.931 295.332 28.424 295.332 29.002C295.332 29.444 295.196 29.852 294.924 30.226C294.686 30.6 294.295 30.872 293.751 31.042C293.309 31.178 292.884 31.28 292.476 31.348C292.068 31.416 291.66 31.45 291.252 31.45Z" fill="#232F61"/>
<path d="M278.556 31.45C277.91 31.45 277.366 31.263 276.924 30.889C276.482 30.515 276.261 30.039 276.261 29.461V17.884C276.261 17.34 276.465 16.881 276.873 16.507C277.315 16.099 277.876 15.895 278.556 15.895C279.236 15.895 279.763 16.099 280.137 16.507C280.545 16.881 280.749 17.357 280.749 17.935V29.41C280.749 29.988 280.528 30.481 280.086 30.889C279.678 31.263 279.168 31.45 278.556 31.45ZM278.556 13.345C277.842 13.345 277.23 13.124 276.72 12.682C276.21 12.206 275.955 11.611 275.955 10.897C275.955 10.251 276.21 9.69 276.72 9.214C277.23 8.738 277.842 8.5 278.556 8.5C279.236 8.5 279.814 8.738 280.29 9.214C280.8 9.69 281.055 10.251 281.055 10.897C281.055 11.611 280.8 12.206 280.29 12.682C279.814 13.124 279.236 13.345 278.556 13.345Z" fill="#232F61"/>
<path d="M267.88 17.833C267.88 17.187 268.084 16.66 268.492 16.252C268.934 15.844 269.478 15.64 270.124 15.64C270.77 15.64 271.297 15.861 271.705 16.303C272.147 16.711 272.368 17.221 272.368 17.833V25.024C272.368 26.418 272.011 27.608 271.297 28.594C270.583 29.546 269.665 30.26 268.543 30.736C267.421 31.212 266.231 31.45 264.973 31.45C263.749 31.45 262.576 31.212 261.454 30.736C260.332 30.26 259.397 29.546 258.649 28.594C257.935 27.608 257.578 26.418 257.578 25.024V17.833C257.578 17.187 257.782 16.66 258.19 16.252C258.632 15.844 259.176 15.64 259.822 15.64C260.468 15.64 260.995 15.861 261.403 16.303C261.845 16.711 262.066 17.221 262.066 17.833V24.82C262.066 25.534 262.338 26.129 262.882 26.605C263.426 27.081 264.123 27.319 264.973 27.319C265.823 27.319 266.52 27.081 267.064 26.605C267.608 26.129 267.88 25.534 267.88 24.82V17.833Z" fill="#232F61"/>
<path d="M251.758 31.45C251.112 31.45 250.568 31.263 250.126 30.889C249.718 30.515 249.514 30.039 249.514 29.461V23.239C249.514 21.981 249.225 21.08 248.647 20.536C248.103 19.992 247.423 19.72 246.607 19.72C245.757 19.72 245.043 19.992 244.465 20.536C243.921 21.08 243.581 21.709 243.445 22.423V29.257C243.445 29.835 243.224 30.328 242.782 30.736C242.374 31.11 241.864 31.297 241.252 31.297C240.606 31.297 240.062 31.11 239.62 30.736C239.178 30.362 238.957 29.886 238.957 29.308V17.884C238.957 17.34 239.161 16.881 239.569 16.507C240.011 16.099 240.572 15.895 241.252 15.895C241.796 15.895 242.255 16.048 242.629 16.354C243.003 16.626 243.258 16.983 243.394 17.425C244.312 16.235 245.706 15.64 247.576 15.64C249.48 15.64 251.027 16.201 252.217 17.323C253.407 18.445 254.002 20.23 254.002 22.678V29.563C254.002 30.107 253.781 30.566 253.339 30.94C252.931 31.28 252.404 31.45 251.758 31.45Z" fill="#232F61"/>
<path d="M227.719 31.45C226.155 31.45 224.693 31.195 223.333 30.685C221.973 30.141 220.902 29.427 220.12 28.543C219.746 28.135 219.559 27.659 219.559 27.115C219.559 26.537 219.78 26.027 220.222 25.585C220.664 25.143 221.191 24.922 221.803 24.922C222.381 24.922 222.874 25.126 223.282 25.534C223.86 26.078 224.591 26.503 225.475 26.809C226.359 27.115 227.226 27.268 228.076 27.268C228.96 27.268 229.725 27.081 230.371 26.707C231.017 26.299 231.34 25.67 231.34 24.82C231.34 24.106 231.034 23.562 230.422 23.188C229.844 22.78 228.858 22.457 227.464 22.219C224.982 21.811 223.112 21.131 221.854 20.179C220.596 19.193 219.967 17.816 219.967 16.048C219.967 14.144 220.698 12.631 222.16 11.509C223.622 10.353 225.543 9.77502 227.923 9.77502C230.371 9.77502 232.326 10.404 233.788 11.662C234.366 12.138 234.655 12.699 234.655 13.345C234.655 13.889 234.434 14.365 233.992 14.773C233.584 15.147 233.091 15.334 232.513 15.334C232.071 15.334 231.663 15.215 231.289 14.977C229.997 14.161 228.637 13.753 227.209 13.753C226.359 13.753 225.645 13.923 225.067 14.263C224.489 14.603 224.2 15.113 224.2 15.793C224.2 16.507 224.642 17.068 225.526 17.476C226.444 17.884 227.77 18.258 229.504 18.598C230.456 18.768 231.391 19.074 232.309 19.516C233.261 19.924 234.043 20.553 234.655 21.403C235.301 22.253 235.624 23.409 235.624 24.871C235.624 26.809 234.876 28.39 233.38 29.614C231.918 30.838 230.031 31.45 227.719 31.45Z" fill="#232F61"/>
<path d="M199.979 31.45C197.667 31.45 195.712 30.77 194.114 29.41C192.55 28.016 191.768 26.112 191.768 23.698C191.768 21.182 192.533 19.21 194.063 17.782C195.627 16.354 197.582 15.64 199.928 15.64C201.594 15.64 202.971 15.946 204.059 16.558C205.147 17.17 205.963 17.952 206.507 18.904C207.051 19.856 207.323 20.859 207.323 21.913C207.323 23.681 206.541 24.565 204.977 24.565H196.511C196.239 24.565 196.103 24.735 196.103 25.075C196.103 25.857 196.528 26.486 197.378 26.962C198.262 27.404 199.248 27.625 200.336 27.625C201.016 27.625 201.696 27.54 202.376 27.37C203.056 27.166 203.651 26.877 204.161 26.503C204.501 26.265 204.858 26.146 205.232 26.146C205.742 26.146 206.167 26.333 206.507 26.707C206.881 27.081 207.068 27.523 207.068 28.033C207.068 28.645 206.745 29.223 206.099 29.767C205.487 30.277 204.586 30.685 203.396 30.991C202.24 31.297 201.101 31.45 199.979 31.45ZM202.631 21.607C202.699 21.607 202.784 21.59 202.886 21.556C203.022 21.522 203.09 21.403 203.09 21.199C203.09 20.689 202.767 20.23 202.121 19.822C201.509 19.38 200.71 19.159 199.724 19.159C198.67 19.159 197.803 19.397 197.123 19.873C196.477 20.315 196.154 20.774 196.154 21.25C196.154 21.488 196.29 21.607 196.562 21.607H202.631Z" fill="#232F61"/>
<path d="M183.3 31.45C180.988 31.45 179.084 30.974 177.588 30.022C177.282 29.818 177.061 29.58 176.925 29.308C176.789 29.002 176.721 28.713 176.721 28.441C176.721 27.863 176.908 27.336 177.282 26.86C177.69 26.384 178.183 26.146 178.761 26.146C179.033 26.146 179.305 26.214 179.577 26.35C180.189 26.622 180.886 26.86 181.668 27.064C182.45 27.234 183.164 27.319 183.81 27.319C185.068 27.319 185.697 27.03 185.697 26.452C185.697 26.112 185.544 25.823 185.238 25.585C184.932 25.313 184.218 25.126 183.096 25.024C182.654 24.99 182.076 24.922 181.362 24.82C180.682 24.718 180.002 24.531 179.322 24.259C178.642 23.953 178.064 23.511 177.588 22.933C177.146 22.355 176.925 21.573 176.925 20.587C176.925 19.057 177.503 17.85 178.659 16.966C179.815 16.082 181.362 15.64 183.3 15.64C184.422 15.64 185.476 15.759 186.462 15.997C187.482 16.235 188.247 16.592 188.757 17.068C189.233 17.51 189.471 18.02 189.471 18.598C189.471 19.108 189.284 19.567 188.91 19.975C188.536 20.383 188.06 20.587 187.482 20.587C187.176 20.587 186.887 20.519 186.615 20.383C186.207 20.111 185.68 19.907 185.034 19.771C184.422 19.635 183.793 19.567 183.147 19.567C181.855 19.567 181.209 19.839 181.209 20.383C181.209 20.621 181.328 20.842 181.566 21.046C181.838 21.216 182.433 21.369 183.351 21.505C183.929 21.573 184.592 21.675 185.34 21.811C186.088 21.913 186.802 22.117 187.482 22.423C188.196 22.695 188.791 23.154 189.267 23.8C189.743 24.446 189.981 25.33 189.981 26.452C189.981 27.982 189.369 29.206 188.145 30.124C186.921 31.008 185.306 31.45 183.3 31.45Z" fill="#232F61"/>
<path d="M163.955 31.45C163.309 31.45 162.765 31.263 162.323 30.889C161.881 30.515 161.66 30.039 161.66 29.461V10.489C161.66 9.945 161.864 9.486 162.272 9.112C162.714 8.704 163.275 8.5 163.955 8.5C164.601 8.5 165.128 8.704 165.536 9.112C165.944 9.486 166.148 9.962 166.148 10.54V19.312C166.148 19.72 166.267 19.924 166.505 19.924C166.573 19.924 166.709 19.856 166.913 19.72L171.86 16.048C172.268 15.776 172.71 15.64 173.186 15.64C173.764 15.64 174.24 15.844 174.614 16.252C174.988 16.66 175.175 17.136 175.175 17.68C175.175 18.428 174.835 19.023 174.155 19.465L170.126 22.117C169.786 22.355 169.616 22.61 169.616 22.882C169.616 23.154 169.752 23.375 170.024 23.545L174.665 27.727C174.971 27.965 175.175 28.237 175.277 28.543C175.379 28.849 175.43 29.138 175.43 29.41C175.43 29.954 175.209 30.43 174.767 30.838C174.359 31.246 173.866 31.45 173.288 31.45C172.71 31.45 172.2 31.229 171.758 30.787L166.76 25.891C166.658 25.789 166.539 25.738 166.403 25.738C166.233 25.738 166.148 25.874 166.148 26.146V29.41C166.148 29.988 165.927 30.481 165.485 30.889C165.077 31.263 164.567 31.45 163.955 31.45Z" fill="#232F61"/>
<path d="M152.083 38.335C151.675 38.335 151.318 38.301 151.012 38.233C150.706 38.165 150.417 38.097 150.145 38.029C149.635 37.859 149.261 37.587 149.023 37.213C148.785 36.839 148.666 36.448 148.666 36.04C148.666 35.428 148.887 34.884 149.329 34.408C149.771 33.932 150.366 33.779 151.114 33.949C151.386 34.017 151.624 34.051 151.828 34.051C152.678 34.051 153.103 33.439 153.103 32.215V17.629C153.103 17.085 153.307 16.626 153.715 16.252C154.157 15.844 154.718 15.64 155.398 15.64C156.078 15.64 156.605 15.844 156.979 16.252C157.387 16.626 157.591 17.102 157.591 17.68V32.317C157.591 34.085 157.081 35.53 156.061 36.652C155.075 37.774 153.749 38.335 152.083 38.335ZM155.347 13.345C154.633 13.345 154.021 13.124 153.511 12.682C153.001 12.206 152.746 11.611 152.746 10.897C152.746 10.251 153.001 9.69 153.511 9.214C154.021 8.738 154.633 8.5 155.347 8.5C156.027 8.5 156.605 8.738 157.081 9.214C157.591 9.69 157.846 10.251 157.846 10.897C157.846 11.611 157.591 12.206 157.081 12.682C156.605 13.124 156.027 13.345 155.347 13.345Z" fill="#232F61"/>
<path d="M146.425 31.45C145.779 31.45 145.235 31.263 144.793 30.889C144.351 30.515 144.13 30.039 144.13 29.461V17.884C144.13 17.34 144.334 16.881 144.742 16.507C145.184 16.099 145.745 15.895 146.425 15.895C147.105 15.895 147.632 16.099 148.006 16.507C148.414 16.881 148.618 17.357 148.618 17.935V29.41C148.618 29.988 148.397 30.481 147.955 30.889C147.547 31.263 147.037 31.45 146.425 31.45ZM146.425 13.345C145.711 13.345 145.099 13.124 144.589 12.682C144.079 12.206 143.824 11.611 143.824 10.897C143.824 10.251 144.079 9.69 144.589 9.214C145.099 8.738 145.711 8.5 146.425 8.5C147.105 8.5 147.683 8.738 148.159 9.214C148.669 9.69 148.924 10.251 148.924 10.897C148.924 11.611 148.669 12.206 148.159 12.682C147.683 13.124 147.105 13.345 146.425 13.345Z" fill="#232F61"/>
<path d="M124.809 31.45C124.163 31.45 123.568 31.263 123.024 30.889C122.514 30.515 122.174 29.954 122.004 29.206L118.944 18.496C118.91 18.36 118.876 18.241 118.842 18.139C118.842 18.037 118.842 17.935 118.842 17.833C118.842 17.221 119.063 16.711 119.505 16.303C119.947 15.861 120.491 15.64 121.137 15.64C122.259 15.64 122.939 16.15 123.177 17.17L124.758 24.667C124.86 25.041 125.013 25.228 125.217 25.228C125.455 25.228 125.625 25.058 125.727 24.718L127.92 18.241C128.124 17.663 128.447 17.238 128.889 16.966C129.331 16.694 129.79 16.558 130.266 16.558C130.742 16.558 131.201 16.694 131.643 16.966C132.119 17.238 132.425 17.663 132.561 18.241L134.703 24.718C134.805 25.058 134.958 25.228 135.162 25.228C135.366 25.228 135.519 25.041 135.621 24.667L137.202 17.17C137.44 16.15 138.12 15.64 139.242 15.64C139.888 15.64 140.432 15.861 140.874 16.303C141.316 16.711 141.537 17.221 141.537 17.833C141.537 17.935 141.52 18.037 141.486 18.139C141.486 18.241 141.469 18.36 141.435 18.496L138.375 29.206C138.171 29.954 137.797 30.515 137.253 30.889C136.743 31.263 136.165 31.45 135.519 31.45C134.941 31.45 134.397 31.28 133.887 30.94C133.377 30.566 132.986 30.005 132.714 29.257L130.674 23.239C130.572 22.865 130.419 22.678 130.215 22.678C129.977 22.678 129.807 22.865 129.705 23.239L127.665 29.257C127.427 30.005 127.036 30.566 126.492 30.94C125.982 31.28 125.421 31.45 124.809 31.45Z" fill="#232F61"/>
<path d="M110.884 31.45C108.572 31.45 106.668 30.974 105.172 30.022C104.866 29.818 104.645 29.58 104.509 29.308C104.373 29.002 104.305 28.713 104.305 28.441C104.305 27.863 104.492 27.336 104.866 26.86C105.274 26.384 105.767 26.146 106.345 26.146C106.617 26.146 106.889 26.214 107.161 26.35C107.773 26.622 108.47 26.86 109.252 27.064C110.034 27.234 110.748 27.319 111.394 27.319C112.652 27.319 113.281 27.03 113.281 26.452C113.281 26.112 113.128 25.823 112.822 25.585C112.516 25.313 111.802 25.126 110.68 25.024C110.238 24.99 109.66 24.922 108.946 24.82C108.266 24.718 107.586 24.531 106.906 24.259C106.226 23.953 105.648 23.511 105.172 22.933C104.73 22.355 104.509 21.573 104.509 20.587C104.509 19.057 105.087 17.85 106.243 16.966C107.399 16.082 108.946 15.64 110.884 15.64C112.006 15.64 113.06 15.759 114.046 15.997C115.066 16.235 115.831 16.592 116.341 17.068C116.817 17.51 117.055 18.02 117.055 18.598C117.055 19.108 116.868 19.567 116.494 19.975C116.12 20.383 115.644 20.587 115.066 20.587C114.76 20.587 114.471 20.519 114.199 20.383C113.791 20.111 113.264 19.907 112.618 19.771C112.006 19.635 111.377 19.567 110.731 19.567C109.439 19.567 108.793 19.839 108.793 20.383C108.793 20.621 108.912 20.842 109.15 21.046C109.422 21.216 110.017 21.369 110.935 21.505C111.513 21.573 112.176 21.675 112.924 21.811C113.672 21.913 114.386 22.117 115.066 22.423C115.78 22.695 116.375 23.154 116.851 23.8C117.327 24.446 117.565 25.33 117.565 26.452C117.565 27.982 116.953 29.206 115.729 30.124C114.505 31.008 112.89 31.45 110.884 31.45Z" fill="#232F61"/>
<path d="M99.2592 31.45C98.6132 31.45 98.0692 31.263 97.6272 30.889C97.1852 30.515 96.9642 30.039 96.9642 29.461V17.884C96.9642 17.34 97.1682 16.881 97.5762 16.507C98.0182 16.099 98.5792 15.895 99.2592 15.895C99.9392 15.895 100.466 16.099 100.84 16.507C101.248 16.881 101.452 17.357 101.452 17.935V29.41C101.452 29.988 101.231 30.481 100.789 30.889C100.381 31.263 99.8712 31.45 99.2592 31.45ZM99.2592 13.345C98.5452 13.345 97.9332 13.124 97.4232 12.682C96.9132 12.206 96.6582 11.611 96.6582 10.897C96.6582 10.251 96.9132 9.69 97.4232 9.214C97.9332 8.738 98.5452 8.5 99.2592 8.5C99.9392 8.5 100.517 8.738 100.993 9.214C101.503 9.69 101.758 10.251 101.758 10.897C101.758 11.611 101.503 12.206 100.993 12.682C100.517 13.124 99.9392 13.345 99.2592 13.345Z" fill="#232F61"/>
<path d="M86.5235 31.45C84.2115 31.45 82.2565 30.77 80.6585 29.41C79.0945 28.016 78.3125 26.112 78.3125 23.698C78.3125 21.182 79.0775 19.21 80.6075 17.782C82.1715 16.354 84.1265 15.64 86.4725 15.64C88.1385 15.64 89.5155 15.946 90.6035 16.558C91.6915 17.17 92.5075 17.952 93.0515 18.904C93.5955 19.856 93.8675 20.859 93.8675 21.913C93.8675 23.681 93.0855 24.565 91.5215 24.565H83.0555C82.7835 24.565 82.6475 24.735 82.6475 25.075C82.6475 25.857 83.0725 26.486 83.9225 26.962C84.8065 27.404 85.7925 27.625 86.8805 27.625C87.5605 27.625 88.2405 27.54 88.9205 27.37C89.6005 27.166 90.1955 26.877 90.7055 26.503C91.0455 26.265 91.4025 26.146 91.7765 26.146C92.2865 26.146 92.7115 26.333 93.0515 26.707C93.4255 27.081 93.6125 27.523 93.6125 28.033C93.6125 28.645 93.2895 29.223 92.6435 29.767C92.0315 30.277 91.1305 30.685 89.9405 30.991C88.7845 31.297 87.6455 31.45 86.5235 31.45ZM89.1755 21.607C89.2435 21.607 89.3285 21.59 89.4305 21.556C89.5665 21.522 89.6345 21.403 89.6345 21.199C89.6345 20.689 89.3115 20.23 88.6655 19.822C88.0535 19.38 87.2545 19.159 86.2685 19.159C85.2145 19.159 84.3475 19.397 83.6675 19.873C83.0215 20.315 82.6985 20.774 82.6985 21.25C82.6985 21.488 82.8345 21.607 83.1065 21.607H89.1755Z" fill="#232F61"/>
<path d="M73.0138 31.45C72.3678 31.45 71.8238 31.263 71.3818 30.889C70.9398 30.515 70.7188 30.039 70.7188 29.461V10.489C70.7188 9.945 70.9228 9.486 71.3308 9.112C71.7728 8.704 72.3338 8.5 73.0138 8.5C73.6597 8.5 74.1868 8.704 74.5948 9.112C75.0028 9.486 75.2068 9.962 75.2068 10.54V29.41C75.2068 29.988 74.9858 30.481 74.5438 30.889C74.1358 31.263 73.6258 31.45 73.0138 31.45Z" fill="#232F61"/>
<path d="M55.1119 30.94C54.1599 30.94 53.3609 30.634 52.7149 30.022C52.1029 29.376 51.7969 28.577 51.7969 27.625V13.447C51.7969 12.563 52.1029 11.815 52.7149 11.203C53.3269 10.591 54.0749 10.285 54.9589 10.285H59.8549C61.7589 10.285 63.2889 10.812 64.4449 11.866C65.6009 12.886 66.1789 14.144 66.1789 15.64C66.1789 17.238 65.6519 18.513 64.5979 19.465C66.4339 20.417 67.3519 22.049 67.3519 24.361C67.3519 26.299 66.7229 27.88 65.4649 29.104C64.2069 30.328 62.5239 30.94 60.4159 30.94H55.1119ZM57.0499 26.86H60.6199C61.2999 26.86 61.8609 26.656 62.3029 26.248C62.7789 25.84 63.0169 25.245 63.0169 24.463C63.0169 23.681 62.7959 23.086 62.3539 22.678C61.9119 22.27 61.3339 22.066 60.6199 22.066H57.0499C56.5399 22.066 56.2849 22.321 56.2849 22.831V26.095C56.2849 26.605 56.5399 26.86 57.0499 26.86ZM57.0499 18.19H59.8549C60.4669 18.19 60.9429 17.986 61.2829 17.578C61.6229 17.17 61.7929 16.728 61.7929 16.252C61.7929 15.776 61.6229 15.351 61.2829 14.977C60.9429 14.569 60.4669 14.365 59.8549 14.365H57.0499C56.5399 14.365 56.2849 14.62 56.2849 15.13V17.425C56.2849 17.935 56.5399 18.19 57.0499 18.19Z" fill="#232F61"/>
</svg>
